<?xml version="1.0" encoding="utf-8"?>
<!-- Generator: Adobe Illustrator 19.2.1, SVG Export Plug-In . SVG Version: 6.00 Build 0)  -->
<svg version="1.2" baseProfile="tiny" id="Layer_1" xmlns="http://www.w3.org/2000/svg" xmlns:xlink="http://www.w3.org/1999/xlink"
	 x="0px" y="0px" viewBox="0 0 612 792" xml:space="preserve">
<path fill="#FFFFFF" stroke="#221E1F" stroke-width="9.375000e-002" stroke-miterlimit="10" d="M26.3,218c3.2-0.1,6.4,0.5,9.6,1
	c12.6,1.6,25.1,3,37.7,4.6c2,1.9,3.6,4.3,5.3,6.4c27.5,34.3,54.9,68.5,82.4,102.7c1.8,2.2,3.3,4.8,5.8,6.4
	c0.3-34.6,0-69.2,0.1-103.9c6.6,0.1,13.1,1.7,19.6,2.2c9.3,1.4,18.7,2.1,27.9,3.7c-0.1,74.6-0.2,149.3,0,223.9
	c-4.1,0.9-8.5,0.2-12.7,0.4c-11.6-0.2-23.3,0.4-34.8-0.3c0.1-15,0-30.1,0-45.1c0-1.8,0.2-3.7-1.1-5.2
	C137.3,379,108.6,343,79.8,307.2c-2-2.2-3.4-5-6-6.7c-0.4,54.8,0,109.5-0.2,164.2c-1.1,1.4-3.1,0.4-4.6,0.7c-13,0-26,0-39,0
	c-1.3,0.1-2.5-0.1-3.7-0.4c0.2-41.7,0-83.3,0.1-125C26.3,299.4,26.5,258.7,26.3,218L26.3,218z"/>
<path fill="#FFFFFF" stroke="#221E1F" stroke-width="9.375000e-002" stroke-miterlimit="10" d="M252.3,245.3
	c13.5,1.8,27.1,3.5,40.7,5.2c2.1,0.3,4.5,0.1,6.4,1.3c-0.5,0.1-1.5,0.1-2,0.2c1,5.9,0.5,12,0.6,18c0,24.7,0,49.4,0,74
	c0,1.6,0.1,3.2,0.4,4.7l0.8,0.5c0.2,0.1,0.6,0.2,0.9,0.3c4.3-1.8,8.7-3.5,13.1-5.1c15.5-5.5,30.6-11.8,46.1-17.2
	c4.5-1.7,9-3.4,13.5-5.3c-0.1-20.5-0.1-40.9,0-61.3c1.7-0.1,3.5,0,5.2,0.3c14,1.9,28,3.4,41.9,5.2c0.4,2.3,0.4,4.6,0.4,6.9
	c-0.1,64.1,0.1,128.2-0.1,192.3c-15.8,0.2-31.6,0.2-47.4-0.1c-0.2-30.7,0-61.4-0.1-92.1c-10,3.7-20.2,7.2-30.2,11.2
	c-14.5,5.4-29.1,10.6-43.4,16.5l-0.8,0.5c-0.6,3.9-0.3,7.8-0.3,11.7c0,17.5,0,35,0,52.5c-15.3-0.3-30.7,0.3-46-0.3
	c-0.4-71.4,0-142.8-0.2-214.2C251.7,249.1,252,247.2,252.3,245.3L252.3,245.3z"/>
<path fill="#FFFFFF" stroke="#0E0C0D" stroke-width="9.375000e-002" stroke-miterlimit="10" d="M297.4,252c0.5-0.1,1.5-0.1,2-0.2
	c0.2,30.4,0,60.8,0.1,91.2c0,2.1,0,4.1-0.3,6.2l-0.8-0.5c-0.3-1.5-0.4-3.1-0.4-4.7c0-24.6,0-49.3,0-74
	C297.9,264,298.4,257.9,297.4,252L297.4,252z"/>
<path fill="#FFFFFF" stroke="#221E1F" stroke-width="9.375000e-002" stroke-miterlimit="10" d="M452.3,270.2
	c15.9,1.7,31.7,3.7,47.4,5.9c0.1,47.2-0.2,94.5,0.2,141.8c28.2-0.1,56.3-0.1,84.5,0c-2.2,6.9-6.5,12.9-9.1,19.6
	c-4.5,9.1-8.9,18.3-13.5,27.4l-0.8,0.4c-28.3,0.2-56.7,0.1-85,0.1c-7.9-0.2-15.9,0.5-23.8-0.3C452.4,400.1,452.2,335.2,452.3,270.2
	L452.3,270.2z"/>
<path fill="#FFFFFF" stroke="#0E0C0D" stroke-width="9.375000e-002" stroke-miterlimit="10" d="M298.3,401.3l0.8-0.5
	c0.2,1.4,0.4,2.8,0.4,4.2c-0.1,18.7-0.1,37.3,0,56c-0.4,1.4,0.9,4.5-1.5,4.5c0-17.5,0-35,0-52.5C298,409.1,297.7,405.2,298.3,401.3
	L298.3,401.3z"/>
<path fill="#FFFFFF" stroke="#221E1F" stroke-width="9.375000e-002" stroke-miterlimit="10" d="M150.6,533.6
	c4.4-8.4,14-13.4,23.4-13.1c7.6-0.4,15.8,1.1,21.4,6.5c-2.7,2.8-4.9,6.6-8.3,8.4c-5.9-5.3-15.5-5.9-21.9-1.2c-7.5,5.8-8,18.3-1.4,25
	c5.5,5.7,15,5.4,21.7,1.9c0-2.7,0.2-5.3-0.3-7.9c-3,0.1-6,0.2-8.9-0.3c0.1-3.3,0.1-6.6,0-9.9c6.6-0.9,13.3-0.3,20-0.3
	c0.1,8.7,0.1,17.5,0,26.3c-1.3,1.8-3.7,2-5.7,2.8c-10.6,3.4-23.2,4-32.8-2.6C146.7,561.4,144.4,545.1,150.6,533.6L150.6,533.6z"/>
<path fill="#FFFFFF" stroke="#221E1F" stroke-width="9.375000e-002" stroke-miterlimit="10" d="M261.8,527.9
	c4-5.8,11.5-7.9,18.2-7.4c5.1-0.2,10,1.7,14,4.7c-1.3,3.7-4.8,6-7.2,8.9c-2.8-2.2-6.2-3.5-9.9-2.9c-3.5-0.2-7.5,3.7-5.3,7.2
	c2.5,3,6.6,3.6,10.1,4.8c4.4,1.2,9.2,3.2,11.4,7.6c3.3,7.2,0.7,17-6.6,20.7c-9.2,4.6-21.4,3.6-29.1-3.5c2.3-3.3,5.2-6,7.8-9
	c2.9,2.2,5.9,4.9,9.8,4.5c3.3,0.3,8.2-1.4,7.8-5.4c-0.3-3.8-4.7-5-7.7-6.1c-5.8-1.7-12.8-3.7-15.2-9.9
	C258.5,537.4,258.8,531.9,261.8,527.9L261.8,527.9z"/>
<path fill="#FFFFFF" stroke="#221E1F" stroke-width="9.375000e-002" stroke-miterlimit="10" d="M319.4,522.6
	c8.8-3.3,19.7-3.4,27.2,2.8c0.8,0.9,2.5,1.6,1.9,3.1c-2.5,2.1-5.1,4.2-7.7,6.2c-2.3-0.4-3.9-2.6-6.2-3.2c-4-0.8-8.7-0.6-12,2
	c-9.4,6.6-8.8,22.9,1.3,28.5c5.7,3.3,13,1.2,17.1-3.7c3.1,2.2,6.1,4.5,9.1,6.8c-2.4,4.3-7,6.9-11.5,8.3c-9.2,2.2-19.7,0.3-26.7-6.3
	c-5.7-5.3-8.3-13.5-7.8-21.2C304,536,310.2,526.4,319.4,522.6L319.4,522.6z"/>
<path fill="#FFFFFF" stroke="#211E1F" stroke-width="9.375000e-002" stroke-miterlimit="10" d="M26.3,522.1c3.7-0.7,7.7-0.7,11.4,0
	c0,6.2-0.5,12.5,0.3,18.7c7-0.2,14-0.2,21,0c0.9-6.2,0.3-12.5,0.3-18.7c3.8-0.7,7.7-0.6,11.4-0.1c-0.1,16.9-0.1,33.9,0,50.8
	c-3.8,0.5-7.6,0.5-11.4,0c0.1-7.3,0.3-14.6,0-21.9c-7.2-0.2-14.4-0.2-21.5,0c-0.4,7.3-0.1,14.6-0.1,21.9c-3.8,0.5-7.6,0.5-11.4,0
	C26.4,555.9,26.4,539,26.3,522.1L26.3,522.1z"/>
<path fill="#FFFFFF" stroke="#211E1F" stroke-width="9.375000e-002" stroke-miterlimit="10" d="M211.3,522.1
	c3.5-0.8,7.1-0.3,10.7-0.4c8.1,0.1,16.1-0.2,24.2,0.1c0.1,3.5,0.1,7,0,10.5c-7.7,0.3-15.4,0.2-23,0c-0.5,3.1-0.5,6.3-0.1,9.4
	c7.3-0.1,14.7-0.2,22,0c0.1,3.5,0.1,7-0.1,10.5c-7.3,0.2-14.6,0.1-21.9,0c-0.3,3.4-0.3,6.7-0.2,10.1c8.3,0.2,16.5,0,24.8,0
	c-0.1,3.5-0.1,7,0,10.5c-6.2,0.7-12.5,0.2-18.7,0.3c-5.9-0.1-11.8,0.4-17.7-0.3C211.4,555.9,211.5,539,211.3,522.1L211.3,522.1z"/>
<path fill="#FFFFFF" stroke="#211D1F" stroke-width="9.375000e-002" stroke-miterlimit="10" d="M361.2,521.9
	c3.8-0.3,7.7-0.6,11.5,0.2c0,6.2-0.6,12.5,0.2,18.7c7.1-0.2,14.1-0.2,21.1,0c0.8-6.2,0.2-12.5,0.3-18.7c3.7-0.7,7.7-0.7,11.4,0
	c-0.1,16.9-0.1,33.8,0,50.7c-3.8,0.5-7.6,0.5-11.4,0c0-7.3,0.3-14.6-0.1-21.9c-7.1-0.2-14.3-0.2-21.5,0c-0.3,7.3-0.1,14.6,0,21.9
	c-3.8,0.5-7.7,0.5-11.5,0C361.2,555.9,361.3,538.9,361.2,521.9L361.2,521.9z"/>
<path fill="#FFFFFF" stroke="#211E1F" stroke-width="9.375000e-002" stroke-miterlimit="10" d="M550.3,522c3.7-0.5,7.6-0.6,11.4,0.1
	c-0.2,13.4-0.2,26.8,0,40.2c7,0.2,14,0,20.9,0c0,3.5,0,7,0.1,10.5c-5.2,0.6-10.5,0.2-15.7,0.3c-5.6-0.1-11.2,0.3-16.7-0.3
	C550.4,555.9,550.4,539,550.3,522L550.3,522z"/>
<path fill="#FFFFFF" stroke="#221E1F" stroke-width="9.375000e-002" stroke-miterlimit="10" d="M127.5,525.5
	c-6.8-5.2-16-5.9-24.2-4.4c-3.1,0.7-6.1,1.7-8.8,3.4c-15.4,9-16,34.4-1.6,44.6c10.5,7.3,26.1,6.9,36.1-1.1
	C141.4,557.4,140.9,535,127.5,525.5z M121.8,558.8c-6.3,6.9-18.9,6.4-24.3-1.4c-3.6-5.1-3.7-12-1.6-17.7c2.2-4.4,6.5-7.7,11.4-8.4
	c5-0.9,10.6,0.4,14.2,4.2C127.4,541.7,127.4,552.4,121.8,558.8z"/>
<path fill="#FFFFFF" stroke="#221E1F" stroke-width="9.375000e-002" stroke-miterlimit="10" d="M463,526c-7.7-6.1-18.4-6.7-27.6-4.3
	c-3.9,1.2-7.5,3.4-10.5,6.2c-8.7,8.7-9.6,23.4-3.7,33.9c7.9,13.6,27.8,15.9,40.4,7.9C476,560.3,476.6,536.3,463,526z M457.2,558.2
	c-6,7.5-19.2,7.2-24.7-0.7c-6.2-8.5-2.9-23.1,7.9-25.9c4.6-1,9.9-0.8,13.9,2.1C461.9,539.1,462.9,551.1,457.2,558.2z"/>
<path fill="#FFFFFF" stroke="#221E1F" stroke-width="9.375000e-002" stroke-miterlimit="10" d="M528.5,526.5
	c-7.7-6.5-18.7-7.3-28-4.9c-10.3,2.8-17.8,12.8-18.2,23.3c-0.5,6.6,1,13.5,4.9,18.9c10.8,14.5,36.4,14.1,46.3-1.4
	C540.2,551.3,538.8,535,528.5,526.5z M518.3,561.3c-6,3.5-14.6,3.1-19.5-2.1c-8.3-8-5.2-24.8,6.6-27.7c4.1-0.7,8.7-0.7,12.5,1.5
	C528.1,538.5,528.2,555.5,518.3,561.3z"/>
</svg>
