<?xml version="1.0" encoding="utf-8"?>
<!-- Generator: Adobe Illustrator 19.2.1, SVG Export Plug-In . SVG Version: 6.00 Build 0)  -->
<svg version="1.2" baseProfile="tiny" id="Layer_1" xmlns="http://www.w3.org/2000/svg" xmlns:xlink="http://www.w3.org/1999/xlink"
	 x="0px" y="0px" viewBox="0 0 327.1 206.3" xml:space="preserve">
<g>
	<path fill="#FFFFFF" d="M60.7,114.5c4.7,0.4,8.6,5.2,7.2,9.5c-1.1-0.2-2.2-0.4-3.2-0.4c-3.2,0-6.3,1.3-8.1,3.2h-0.2
		c0,0-0.2,0.4-0.5,0.9c-0.4,0.4-0.5,0.9-0.7,1.3c-1.4,2.7-2.9,7.7,0.2,11.9c-7,9.9-12.9,21.9-6.5,32c-0.7,0.9-1.3,1.8-1.6,2.7
		c-1.8,3.2-2.7,8.1,1.8,15.1c0,0,2.3,2.9,0.7,5.7c0,0,7.2,0.5,6.6-7.4c0.9,2.5,3.4,5.9,9.7,8.8c0,0,4.8,4,1.1,8.4
		c0,0,12.9-11,2.5-19c-1.6-1.3-3.1-2.3-4.3-3.4c0.2,0,0.4,0,0.7,0c5.7,0.2,8.8-5.7,6.6-4.8c0,0,0,0-0.2,0c-2.2,0.9-4.3-0.9-7.9-4.5
		c-1.8-2-3.4-2.9-4.5-3.2c-2.9-1.8-6.3-2-9.2-0.5c-2.2-4.8-3.2-13.5,6.6-25.5c0.2-0.4,0.5-0.5,0.7-0.9c4.1,5.7,5.9,12,0,14
		c0,0,8.1-0.2,8.4-7c0.2-5.7-4.7-9.7-1.6-13.1c5.2-0.2,9.2-3.4,9.2-7.4c0-1.8-0.9-3.4-2.3-4.7c1.6-3.6,1.8-6.8,1.4-12.4
		c0.7-0.2,1.3-0.4,2-0.7c0.2,2.5,0.5,5,1.8,6.8c1.1,1.4,2.5,2.3,4.3,2.5c12,1.3,10.2,6.6,10.2,6.6c-1.4,1.6,1.6,3.6,1.6,3.6
		c8.4-3.4,5.4,8.3,3.1,5.7c-2.3-2.3-4.8,1.1-4.8,1.1c-2.3,2,1.8,8.8,3.2,9.5s-0.2,5.2-0.2,5.2c2.2,1.6,7.5-0.5,7.5-0.5
		c1.1,2.3-1.4,6.3-1.4,6.3c3.2,1.8,5.2-2,5.2-2c0.9,0.5,3.2,7,3.2,7c0.7,2.9,3.8,3.4,3.8,3.4c-0.2-2,2.2-2.2,2.2-2.2
		s1.3-0.2,1.4-0.4c0.2-0.4,3.4-2.5,4.5-0.4c1.1,2.2,3.1,3.2,4,3.8c0.9,0.4,3.2-1.1,3.2-1.1c0.9,1.1,2.9,1.3,2.9,1.3
		c1.8-2.7,1.1-6.3,1.1-6.3c0.5-0.2,2.2,0.4,2.2,0.4c0.7-2.3,0.5-5.2,0.5-5.2h1.3c0.7-5.4-3.4-7.9-3.4-7.9c-1.1-4-8.8-0.7-8.4,0.7
		c0.4,1.4-0.7,3.8-0.7,3.8c-0.2,2-5.7-0.9-6.1-3.1s-3.4-6.3-3.4-6.3c1.3-0.2,2.2-4.7,2.2-4.7c2.7,0,6.6,5.2,6.6,5.2
		c1.3-1.4,0.5-5.9,0.5-5.9s0.2,2.2,4.7,2.2c4.5-0.2,6.6,2.3,6.6,2.3c0.5-3.6-4.5-7.5-4.5-7.5c2.5-1.1,1.6-3.1,1.6-3.1
		c-0.4,0.9-4.8,0.4-4.8,0.4c1.8-1.1,1.6-3.2,1.6-3.2c-0.5,0.7-2.2-0.7-2.2-0.7c2-0.7,1.6-3.4,1.6-3.4c-5.7,2-6.1-3.2-8.6-2.7
		s-3.6-0.9-3.6-0.9c-7.7-14-22.3-20.1-27.3-22.4l0,0c7.2,0.9,13.1-0.4,13.1-0.4c-3.4-0.4-7.4-6.5-9.9-11.7c1.1-2.3,2.2-4,2.2-4
		c2.3,7.7,14.9,10.2,14.9,10.2c-2.5-1.8-4.5-4.7-5.4-11.5c1.1,0.4,2.3,2,2.3,2c-0.5-1.1,1.1-2.7,1.1-2.7l2.9,1.8
		c-1.8-1.8,0.7-4,0.7-4l1.1,0.5c1.1-1.4,2-3.1,2-3.1c1.3,0.9,3.6-0.4,3.6-0.4l0,0c1.6,0.5,3.1,0.5,3.1,0.5c0.2-0.5,0.2-2.7,0.2-3.6
		c0.7-0.4,1.1-0.7,1.3-0.9c0.9,2,2.5,4,2.5,4c0.5-0.4,2.7-3.6,3.4-4.7c0,0.2,0,0.2,0,0.2c0.4,0.4,0.7,0.4,1.1,0.2
		c0.5,2,2.7,4.5,2.7,4.5c0.9-1.4,2-4.8,2.2-5.7c0.2,0,0.4,0.2,0.4,0.2c2.3-4.8-2.7-5.7-4.3-5.9c-1.6-0.2-4.3-0.9-4.3-0.9
		c0.5-10.1-8.3-7.9-8.3-7.9c-2.7,4.1-13.8,8.8-13.8,8.8s-0.2,0.5-0.5,1.3c-0.7-3.8-2.2-6.6-3.6-8.4c-0.2-0.9-0.4-1.6-0.4-2.7
		c0-1.6,1.1-2.7,1.6-3.2c0,0.5,1.6,2,1.6,2c-0.4-0.5-0.4-1.3-0.4-1.3c0.9-1.8,0.7-3.4,0.7-4v-0.9l-1.8,0.7l-0.9-1.4
		c-2.5,2.3-3.4,0.2-3.4,0.2c-1.3-4.7-0.2-7.5,1.4-9.5c2.3,2.5,6.5,8.3,7.9,11c1.8,3.4,8.4,7.4,12,5c3.6-2.3,0.7-9.2-3.8-10.1
		c-4.3-0.7-1.4,4-1.4,4c-1.4,3.8-5.2-1.8-5.2-1.8c-1.6-4.1-5-7.5-7.9-9.7c2.3-1.6,4.8-2,4.8-2c0.9,2.9,2.3,4.5,2.3,4.5l-0.7,2.2
		l2.2-0.5l0.4,0.4l-0.5,1.8l2-1.4c5.7-0.9,5.2-6.1,5.2-6.1l2.2-0.4c0,0-0.2-7.4-5.7-12c0,0,0-3.4-1.8-5.9s-6.5-4.7-7.5-5.7
		s-2.7-4.1-9.3-7.2c0,0-1.8-0.9-1.1-2.9c0,0-2.7,1.1-3.2,2.3c0,0-5-1.8-5.6-4c0,0-3.6,1.8-2.7,7c0,0-4.8,2.5-7.4,11
		c0,0-1.3,1.3-2.5-0.2l-2,5.7l-2-5.7c-1.4,1.4-2.5,0.2-2.5,0.2c-2.5-8.4-7.4-11-7.4-11c0.7-5.9-2.7-7.7-2.7-7.7c-0.5,2-5.6,4-5.6,4
		c-0.5-1.3-3.2-2.3-3.2-2.3c0.9,2-1.1,2.9-1.1,2.9c-6.6,3.1-8.4,6.1-9.3,7.2c-1.1,1.1-5.6,3.2-7.5,5.7c-1.8,2.5-1.8,5.9-1.8,5.9
		c-5.4,4.7-5.7,12-5.7,12l2.2,0.4c0,0-0.5,5.2,5.2,6.1l2,1.4l-0.5-1.8l0.4-0.4l2.2,0.5l-0.7-2.2c0,0,1.4-1.8,2.3-4.5
		c0,0,2.5,0.4,4.8,2c-2.7,2.2-6.1,5.6-7.9,9.7c0,0-3.8,5.7-5.2,1.8c0,0,2.9-4.8-1.4-4c-4.3,0.7-7.4,7.7-3.8,10.1s10.4-1.6,12-5
		c1.4-2.9,5.6-8.6,7.9-11c1.6,2,2.7,5,1.4,9.5c0,0-0.9,2.2-3.4-0.2l-0.9,1.4l-1.8-0.7v1.1c-0.2,0.5-0.2,2.2,0.7,4
		c0,0,0.2,0.7-0.4,1.3c0,0,1.4-1.4,1.6-2c0.5,0.5,1.6,1.6,1.6,3.2c0,1.1-0.2,1.8-0.4,2.7c-1.4,2-2.9,4.7-3.6,8.4
		c-0.4-0.7-0.5-1.3-0.5-1.3s-11.4-4.4-14.1-8.8c0,0-8.8-2.2-8.3,7.9c0,0-2.7,0.7-4.3,0.9C5,66.2,0,67.1,2.3,71.9c0,0,0.2,0,0.4-0.2
		C2.9,72.6,4,76,4.9,77.4c0,0,2.2-2.5,2.7-4.5c0.2,0.2,0.5,0.2,1.1-0.2c0,0,0,0,0-0.2c0.7,1.1,3.1,4.3,3.4,4.7c0,0,1.8-2,2.5-4
		c0.2,0.2,0.5,0.7,1.3,0.9c0,0.7-0.2,3.1,0.2,3.6c0,0,1.4-0.2,3.1-0.5l0,0c0,0,2.2,1.3,3.6,0.4c0,0,1.1,1.6,2,3.1l1.1-0.5
		c0,0,2.5,2.3,0.7,4l2.9-1.8c0,0,1.4,1.6,1.1,2.7c0,0,1.3-1.6,2.3-2C32,89.9,30,93,27.5,94.6c0,0,12.6-2.3,14.9-10.2
		c0,0,1.1,1.4,2.2,4c-2.9,5-6.6,11.1-10.2,11.5c0,0,5.7,1.3,13.1,0.4l0,0c-4.8,2.3-19.4,8.4-27.3,22.4c0,0-1.1,1.4-3.6,0.9
		s-2.9,4.7-8.6,2.7c0,0-0.4,2.9,1.6,3.4c0,0-1.6,1.4-2.2,0.7c0,0-0.2,2.2,1.6,3.2c0,0-4.5,0.5-4.8-0.4c0,0-0.9,2,1.6,3.1
		c0,0-5,4-4.5,7.5c0,0,2.2-2.3,6.6-2.3c4.8,0.4,5-1.8,5-1.8s-0.5,4.7,0.5,5.9c0,0,4-5.2,6.6-5.2c0,0,1.1,4.5,2.2,4.7
		c0,0-3.1,4.1-3.4,6.3c-0.3,2.2-6.1,5-6.1,3.1c0,0-1.1-2.2-0.7-3.8c0.4-1.4-7.5-4.7-8.4-0.7c0,0-4.1,2.5-3.4,7.9h1.3
		c0,0-0.4,3.1,0.5,5.2c0,0,1.6-0.5,2.2-0.4c0,0-0.7,3.6,1.1,6.3c0,0,2-0.2,2.9-1.3c0,0,2.3,1.4,3.2,1.1c0.9-0.4,3.1-1.4,4-3.8
		c1.1-2.2,4.3,0.2,4.5,0.4c0.2,0.4,1.4,0.4,1.4,0.4s2.3,0.2,2.2,2.2c0,0,2.9-0.5,3.8-3.4c0,0,2.3-6.3,3.2-7c0,0,2,3.8,4.8,2.3
		c0,0-2.3-4-1.4-6.3c0,0,5.4,2.2,7.5,0.5c0,0-1.6-4.5-0.2-5.2s5.6-7.5,3.2-9.5c0,0-2.5-3.4-4.8-1.1c-2.2,2.3-5.2-9.3,3.1-5.7
		c0,0,3.1-2,1.6-3.6c0,0-1.8-5.6,10.2-6.6c1.8-0.2,3.2-1.1,4.3-2.5C60,118.5,60.5,117,60.7,114.5L60.7,114.5L60.7,114.5z"/>
	<polygon fill="#FFFFFF" points="177.2,114.2 175.6,114.2 175.6,95 177.2,95 	"/>
	<polygon fill="#FFFFFF" points="196.6,114.2 195.2,114.2 186.2,97.8 186.2,114.2 184.6,114.2 184.6,95 186.2,95 195.2,111.3 
		195.2,95 196.6,95 	"/>
	<polygon fill="#FFFFFF" points="214.6,96.4 209,96.4 209,114.2 207.6,114.2 207.6,96.4 202.2,96.4 202.2,95 214.6,95 	"/>
	<polygon fill="#FFFFFF" points="229.3,105 221.8,105 221.8,112.7 230.4,112.7 230.4,114.2 220.3,114.2 220.3,95 230.2,95 
		230.2,96.4 221.8,96.4 221.8,103.6 229.3,103.6 	"/>
	<path fill="#FFFFFF" d="M237.9,104.8h4c0.5,0,1.1-0.2,1.6-0.4c0.5-0.2,0.9-0.5,1.1-0.9c0.4-0.4,0.5-0.9,0.7-1.3
		c0.2-0.5,0.2-1.1,0.2-1.6c0-0.7,0-1.3-0.2-1.8s-0.4-0.9-0.7-1.3c-0.4-0.4-0.7-0.7-1.3-0.9c-0.5-0.2-1.1-0.4-1.8-0.4h-3.8v8.4h0.2
		V104.8z M242.4,106.1h-4.5v7.9h-1.4V95h5.2c0.9,0,1.6,0.2,2.3,0.4c0.7,0.2,1.3,0.5,1.8,1.1c0.5,0.5,0.9,1.1,1.1,1.8
		c0.2,0.7,0.4,1.4,0.4,2.3c0,0.7,0,1.3-0.2,1.8c-0.2,0.5-0.4,1.1-0.7,1.4c-0.4,0.4-0.7,0.9-1.1,1.1c-0.4,0.4-0.9,0.5-1.3,0.7l4,8.1
		v0.2h-1.6L242.4,106.1L242.4,106.1z"/>
	<polygon fill="#FFFFFF" points="265.9,114.2 264.5,114.2 255.3,97.8 255.3,114.2 253.9,114.2 253.9,95 255.3,95 264.5,111.3 
		264.5,95 265.9,95 	"/>
	<polygon fill="#FFFFFF" points="282.1,105 274.7,105 274.7,112.7 283.2,112.7 283.2,114.2 273.1,114.2 273.1,95 283.2,95 
		283.2,96.4 274.7,96.4 274.7,103.6 282.1,103.6 	"/>
	<polygon fill="#FFFFFF" points="300.6,96.4 295,96.4 295,114.2 293.6,114.2 293.6,96.4 288.2,96.4 288.2,95 300.6,95 	"/>
	<path fill="#FFFFFF" d="M316.6,99.1c0,0.5,0.2,1.1,0.4,1.8c0.2,0.5,0.5,1.3,1.1,2l1.4-1.3c0.5-0.4,0.9-0.9,1.1-1.3
		c0.4-0.5,0.4-1.1,0.4-1.6c0-0.4,0-0.5-0.2-0.9s-0.2-0.5-0.4-0.7c-0.2-0.2-0.4-0.4-0.7-0.5c-0.2-0.2-0.5-0.2-0.9-0.2s-0.7,0-1.1,0.2
		c-0.4,0.2-0.5,0.4-0.7,0.7c-0.2,0.2-0.4,0.5-0.4,0.9C316.6,98.2,316.6,98.6,316.6,99.1 M318.7,113.1c0.7,0,1.3-0.2,2-0.5
		c0.5-0.4,1.1-0.7,1.6-1.4l-4.5-6.3l-0.2-0.2l-0.5,0.4c-0.5,0.5-0.9,0.9-1.1,1.3c-0.4,0.4-0.5,0.7-0.7,1.1c-0.2,0.4-0.2,0.7-0.4,0.9
		c0,0.4,0,0.5,0,0.7c0,0.5,0,1.1,0.2,1.4c0.2,0.5,0.4,0.9,0.7,1.3c0.3,0.4,0.7,0.5,1.1,0.9C317.7,112.9,318.2,113.1,318.7,113.1
		 M316.9,103.8c-0.4-0.4-0.5-0.9-0.7-1.3c-0.2-0.4-0.4-0.7-0.5-1.1c-0.2-0.4-0.4-0.7-0.4-1.1s-0.2-0.7-0.2-1.1c0-0.7,0-1.3,0.2-1.8
		s0.4-1.1,0.7-1.4c0.3-0.3,0.7-0.7,1.3-0.9c0.6-0.2,0.9-0.4,1.6-0.4c0.5,0,1.1,0.2,1.4,0.4c0.4,0.2,0.7,0.5,1.1,0.9s0.5,0.7,0.7,1.3
		c0.2,0.5,0.2,0.9,0.2,1.4c0,0.4,0,0.9-0.2,1.3c-0.2,0.4-0.4,0.7-0.5,1.1c-0.2,0.4-0.4,0.7-0.7,0.9c-0.2,0.4-0.5,0.5-0.7,0.7
		l-1.4,1.3l4.3,6.1c0.4-0.5,0.5-1.3,0.7-2c0.2-0.7,0.2-1.4,0.2-2.3h1.3c0,2.2-0.5,4-1.4,5.4l2,3h-1.8l-1.2-1.8
		c-0.5,0.7-1.3,1.3-2,1.6c-0.7,0.4-1.6,0.5-2.3,0.5c-0.7,0-1.4-0.2-2.2-0.4c-0.5-0.2-1.1-0.5-1.6-1.1c-0.4-0.5-0.7-1.1-1.1-1.6
		c-0.2-0.7-0.4-1.3-0.4-2.2c0-0.5,0-1.1,0.2-1.6c0.2-0.5,0.4-0.9,0.7-1.4c0.4-0.4,0.5-0.9,1.1-1.3
		C316,104.7,316.4,104.1,316.9,103.8L316.9,103.8L316.9,103.8z"/>
	<polygon fill="#FFFFFF" points="177.6,121.9 183.3,138.8 189.3,121.9 191.2,121.9 191.2,141.1 189.6,141.1 189.6,132.7 
		189.8,124.4 183.9,141.1 182.8,141.1 176.9,124.6 177.1,132.7 177.1,141.1 175.6,141.1 175.6,121.9 	"/>
	<path fill="#FFFFFF" d="M200.6,134.3h6.3l-3.2-10.2L200.6,134.3L200.6,134.3z M207.4,135.7h-7.2l-1.6,5.4H197l6.1-19.2h1.4
		l6.1,19.2H209L207.4,135.7L207.4,135.7z"/>
	<path fill="#FFFFFF" d="M217.6,131.8h4c0.5,0,1.1-0.2,1.6-0.4c0.5-0.2,0.9-0.5,1.1-0.9c0.4-0.4,0.5-0.9,0.7-1.3
		c0.2-0.4,0.2-1.1,0.2-1.6c0-0.7,0-1.3-0.2-1.8s-0.4-0.9-0.7-1.3c-0.4-0.4-0.7-0.7-1.3-0.9c-0.5-0.2-1.1-0.4-1.8-0.4h-3.8v8.4h0.2
		V131.8z M222.1,133h-4.5v7.9h-1.4v-19h5.2c0.9,0,1.6,0.2,2.3,0.4c0.7,0.2,1.3,0.5,1.8,1.1c0.5,0.5,0.9,1.1,1.1,1.8
		c0.2,0.7,0.4,1.4,0.4,2.3c0,0.7,0,1.3-0.2,1.8s-0.4,1.1-0.7,1.4c-0.4,0.4-0.7,0.9-1.1,1.1c-0.4,0.4-0.9,0.5-1.3,0.7l4,8.1v0.2h-1.6
		L222.1,133L222.1,133z"/>
	<polygon fill="#FFFFFF" points="237.4,131.6 235.2,134.3 235.2,141.1 233.6,141.1 233.6,121.9 235.2,121.9 235.2,132.1 
		237.2,129.4 243.1,121.9 245.1,121.9 238.5,130.5 245.7,141.1 243.7,141.1 	"/>
	<polygon fill="#FFFFFF" points="260,132 252.7,132 252.7,139.7 261.3,139.7 261.3,141.1 251.2,141.1 251.2,121.9 261.1,121.9 
		261.1,123.3 252.7,123.3 252.7,130.5 260,130.5 	"/>
	<polygon fill="#FFFFFF" points="278.5,123.3 272.9,123.3 272.9,141.1 271.5,141.1 271.5,123.3 266.1,123.3 266.1,121.9 
		278.5,121.9 	"/>
	<polygon fill="#FFFFFF" points="286.1,141.1 284.4,141.1 284.4,121.9 286.1,121.9 	"/>
	<polygon fill="#FFFFFF" points="305.6,141.1 304,141.1 295,124.8 295,141.1 293.4,141.1 293.4,121.9 295,121.9 304,138.2 
		304,121.9 305.6,121.9 	"/>
	<path fill="#FFFFFF" d="M324.5,138.8c-0.2,0.2-0.4,0.4-0.7,0.7c-0.4,0.4-0.7,0.5-1.1,0.9c-0.5,0.2-1.1,0.5-1.6,0.7
		c-0.7,0.2-1.4,0.4-2.2,0.4c-0.9,0-1.8-0.2-2.7-0.5c-0.7-0.4-1.4-0.9-2-1.4c-0.5-0.7-1.1-1.4-1.3-2.3c-0.4-0.9-0.5-2.2-0.5-3.4v-4.5
		c0-1.3,0.2-2.3,0.4-3.2c0.4-0.9,0.7-1.8,1.3-2.3c0.5-0.7,1.3-1.1,2-1.4c0.7-0.4,1.6-0.5,2.7-0.5c0.9,0,1.6,0.2,2.3,0.4
		c0.7,0.2,1.3,0.5,1.8,1.1c0.5,0.5,0.9,1.1,1.1,1.8c0.4,0.7,0.4,1.4,0.5,2.3h-1.4c0-0.7-0.2-1.3-0.4-1.8c-0.2-0.5-0.5-0.9-0.7-1.3
		c-0.4-0.4-0.7-0.7-1.3-0.9c-0.5-0.2-1.1-0.4-1.8-0.4c-1.6,0-2.7,0.5-3.6,1.6c-0.7,1.1-1.1,2.5-1.1,4.5v4.5c0,1.1,0.2,2,0.4,2.7
		c0.2,0.7,0.5,1.4,0.9,2c0.4,0.5,0.9,0.9,1.6,1.3c0.5,0.4,1.3,0.4,2,0.4c0.5,0,1.1,0,1.6-0.2s0.9-0.4,1.3-0.4
		c0.4-0.2,0.5-0.4,0.9-0.5c0.2-0.2,0.4-0.4,0.5-0.4v-5h-4.1v-1.4h5.7v6.8h-0.5V138.8z"/>
	<path fill="#FFFFFF" d="M192,76.8c0-0.7,0-1.4-0.2-2c-0.2-0.5-0.4-1.1-0.9-1.6c-0.4-0.5-1.1-1.1-1.8-1.4c-0.7-0.5-1.8-0.9-3.2-1.4
		c-1.6-0.5-3.1-1.3-4.5-2c-1.4-0.7-2.7-1.6-3.8-2.7s-2-2.2-2.5-3.6c-0.7-1.4-0.9-2.9-0.9-4.7c0-1.8,0.4-3.2,0.9-4.7
		c0.7-1.4,1.6-2.7,2.7-3.6c1.3-1.1,2.5-1.8,4.1-2.3c1.6-0.5,3.4-0.9,5.4-0.9s3.8,0.4,5.4,0.9c1.6,0.7,3.1,1.4,4.1,2.7
		c1.1,1.1,2,2.5,2.7,4.1c0.5,1.6,0.9,3.2,0.9,5.2h-8.3c0-0.9,0-1.6-0.4-2.3c-0.2-0.7-0.5-1.4-0.9-1.8c-0.4-0.5-0.9-0.9-1.4-1.3
		c-0.5-0.4-1.3-0.4-2.2-0.4c-0.7,0-1.4,0.2-2.2,0.4c-0.5,0.2-1.1,0.5-1.4,1.1c-0.4,0.4-0.7,0.9-0.9,1.6c-0.2,0.5-0.4,1.3-0.4,1.8
		c0,0.7,0.2,1.3,0.4,1.8c0.4,0.5,0.7,1.1,1.3,1.6c0.5,0.5,1.3,0.9,2,1.3c0.7,0.4,1.6,0.9,2.5,1.3c2,0.7,3.6,1.4,5,2.3
		c1.4,0.9,2.7,1.8,3.6,2.9c0.9,1.1,1.6,2.3,2.2,3.6c0.5,1.4,0.7,2.9,0.7,4.7c0,1.8-0.4,3.4-0.9,4.8s-1.4,2.7-2.5,3.6
		c-1.1,0.9-2.5,1.8-4,2.3c-1.6,0.5-3.4,0.7-5.4,0.7c-1.8,0-3.6-0.4-5.2-0.9c-1.8-0.5-3.2-1.4-4.7-2.5c-1.4-1.1-2.5-2.5-3.2-4.3
		c-0.9-1.8-1.3-3.8-1.3-6.1h8.4c0,1.3,0.2,2.3,0.4,3.2c0.2,0.9,0.5,1.6,1.1,2.2c0.5,0.5,1.1,0.9,1.8,1.1s1.6,0.4,2.5,0.4
		c0.7,0,1.4-0.2,2-0.4c0.5-0.2,1.1-0.5,1.4-0.9c0.4-0.4,0.5-0.9,0.7-1.4C192,78.1,192,77.5,192,76.8"/>
	<polygon fill="#FFFFFF" points="232.9,53.1 222.7,53.1 222.7,87.8 214.2,87.8 214.2,53.1 204.2,53.1 204.2,46.3 232.9,46.3 	"/>
	<polygon fill="#FFFFFF" points="259.1,69.8 246.2,69.8 246.2,80.8 261.6,80.8 261.6,87.8 237.7,87.8 237.7,46.3 261.5,46.3 
		261.5,53.1 246.2,53.1 246.2,63 259.1,63 	"/>
	<path fill="#FFFFFF" d="M274.7,65.5h4.7c1.6,0,2.9-0.5,3.8-1.6c0.9-1.1,1.3-2.5,1.3-4.5c0-0.9,0-1.8-0.4-2.5
		c-0.2-0.7-0.5-1.4-0.9-2c-0.4-0.5-0.9-0.9-1.4-1.3c-0.5-0.4-1.3-0.4-2.2-0.4h-4.8v12.3H274.7z M278.9,72.5h-4.1v15.1h-8.4V46.3
		h13.3c2.2,0,4,0.4,5.6,0.9s3.1,1.3,4.1,2.3c1.1,1.1,2,2.3,2.5,4c0.5,1.6,0.9,3.4,0.9,5.4c0,1.4-0.2,2.9-0.4,4.1
		c-0.4,1.3-0.7,2.3-1.3,3.2c-0.6,0.9-1.1,1.8-2,2.5c-0.7,0.7-1.6,1.3-2.5,1.8l7.2,17.1V88h-9L278.9,72.5L278.9,72.5z"/>
	<path fill="#FFFFFF" d="M326.8,73.9c-0.2,4.7-1.6,8.3-4,10.8s-5.9,3.6-10.3,3.6c-2.3,0-4.3-0.4-6.1-1.1c-1.8-0.7-3.4-2-4.5-3.4
		c-1.3-1.4-2.2-3.4-2.9-5.6c-0.7-2.2-0.9-4.8-0.9-7.7v-7c0-2.9,0.4-5.4,1.1-7.7c0.7-2.1,1.6-4.1,2.8-5.6c1.3-1.4,2.9-2.6,4.7-3.4
		c1.8-0.8,3.8-1.1,6.1-1.1c4.5,0,7.9,1.3,10.2,3.8c2.3,2.5,3.8,6.1,4,11h-8.4c0-1.4-0.2-2.7-0.4-3.8c-0.2-1.1-0.5-1.8-1.1-2.3
		c-0.6-0.5-1.1-1.1-1.8-1.3s-1.6-0.4-2.7-0.4c-1.1,0-2.1,0.2-2.8,0.6s-1.4,1.1-2,1.8c-0.5,0.9-0.9,2-1.1,3.4c-0.2,1.4-0.4,3.1-0.4,5
		v7.2c0,2,0.2,3.6,0.4,5c0.2,1.5,0.5,2.6,1.1,3.5c0.5,0.9,1.1,1.4,1.8,2c0.7,0.4,1.8,0.5,3.1,0.5c1.1,0,2-0.2,2.7-0.4
		c0.7-0.2,1.3-0.5,1.8-1.1c0.5-0.5,0.9-1.3,1.1-2.3c0.2-0.9,0.4-2.2,0.5-3.6h8.1v-0.4H326.8z"/>
</g>
</svg>
