<?xml version="1.0" encoding="utf-8"?>
<!-- Generator: Adobe Illustrator 19.2.1, SVG Export Plug-In . SVG Version: 6.00 Build 0)  -->
<svg version="1.1" id="Layer_1" xmlns="http://www.w3.org/2000/svg" xmlns:xlink="http://www.w3.org/1999/xlink" x="0px" y="0px"
	 viewBox="0 0 558.1 356.3" style="enable-background:new 0 0 558.1 356.3;" xml:space="preserve">
<style type="text/css">
	.st0{fill:#FFFFFF;stroke:#221E1F;stroke-width:9.375000e-002;stroke-miterlimit:10;}
	.st1{fill:#FFFFFF;stroke:#0E0C0D;stroke-width:9.375000e-002;stroke-miterlimit:10;}
	.st2{fill:#FFFFFF;stroke:#211E1F;stroke-width:9.375000e-002;stroke-miterlimit:10;}
	.st3{fill:#FFFFFF;stroke:#211D1F;stroke-width:9.375000e-002;stroke-miterlimit:10;}
</style>
<path class="st0" d="M0,0c3.2-0.1,6.4,0.5,9.6,1c12.6,1.6,25.1,3,37.7,4.6c2,1.9,3.6,4.3,5.3,6.4c27.5,34.3,54.9,68.5,82.4,102.7
	c1.8,2.2,3.3,4.8,5.8,6.4c0.3-34.6,0-69.2,0.1-103.9c6.6,0.1,13.1,1.7,19.6,2.2c9.3,1.4,18.7,2.1,27.9,3.7
	c-0.1,74.6-0.2,149.3,0,223.9c-4.1,0.9-8.5,0.2-12.7,0.4c-11.6-0.2-23.3,0.4-34.8-0.3c0.1-15,0-30.1,0-45.1c0-1.8,0.2-3.7-1.1-5.2
	C111,161,82.3,125,53.5,89.2c-2-2.2-3.4-5-6-6.7c-0.4,54.8,0,109.5-0.2,164.2c-1.1,1.4-3.1,0.4-4.6,0.7c-13,0-26,0-39,0
	c-1.3,0.1-2.5-0.1-3.7-0.4c0.2-41.7,0-83.3,0.1-125C0,81.4,0.2,40.7,0,0L0,0z"/>
<path class="st0" d="M226,27.3c13.5,1.8,27.1,3.5,40.7,5.2c2.1,0.3,4.5,0.1,6.4,1.3c-0.5,0.1-1.5,0.1-2,0.2c1,5.9,0.5,12,0.6,18
	c0,24.7,0,49.4,0,74c0,1.6,0.1,3.2,0.4,4.7l0.8,0.5c0.2,0.1,0.6,0.2,0.9,0.3c4.3-1.8,8.7-3.5,13.1-5.1c15.5-5.5,30.6-11.8,46.1-17.2
	c4.5-1.7,9-3.4,13.5-5.3c-0.1-20.5-0.1-40.9,0-61.3c1.7-0.1,3.5,0,5.2,0.3c14,1.9,28,3.4,41.9,5.2c0.4,2.3,0.4,4.6,0.4,6.9
	c-0.1,64.1,0.1,128.2-0.1,192.3c-15.8,0.2-31.6,0.2-47.4-0.1c-0.2-30.7,0-61.4-0.1-92.1c-10,3.7-20.2,7.2-30.2,11.2
	c-14.5,5.4-29.1,10.6-43.4,16.5l-0.8,0.5c-0.6,3.9-0.3,7.8-0.3,11.7c0,17.5,0,35,0,52.5c-15.3-0.3-30.7,0.3-46-0.3
	c-0.4-71.4,0-142.8-0.2-214.2C225.4,31.1,225.7,29.2,226,27.3L226,27.3z"/>
<path class="st1" d="M271.1,34c0.5-0.1,1.5-0.1,2-0.2c0.2,30.4,0,60.8,0.1,91.2c0,2.1,0,4.1-0.3,6.2l-0.8-0.5
	c-0.3-1.5-0.4-3.1-0.4-4.7c0-24.6,0-49.3,0-74C271.6,46,272.1,39.9,271.1,34L271.1,34z"/>
<path class="st0" d="M426,52.2c15.9,1.7,31.7,3.7,47.4,5.9c0.1,47.2-0.2,94.5,0.2,141.8c28.2-0.1,56.3-0.1,84.5,0
	c-2.2,6.9-6.5,12.9-9.1,19.6c-4.5,9.1-8.9,18.3-13.5,27.4l-0.8,0.4c-28.3,0.2-56.7,0.1-85,0.1c-7.9-0.2-15.9,0.5-23.8-0.3
	C426.1,182.1,425.9,117.2,426,52.2L426,52.2z"/>
<path class="st1" d="M272,183.3l0.8-0.5c0.2,1.4,0.4,2.8,0.4,4.2c-0.1,18.7-0.1,37.3,0,56c-0.4,1.4,0.9,4.5-1.5,4.5
	c0-17.5,0-35,0-52.5C271.7,191.1,271.4,187.2,272,183.3L272,183.3z"/>
<path class="st0" d="M124.3,315.6c4.4-8.4,14-13.4,23.4-13.1c7.6-0.4,15.8,1.1,21.4,6.5c-2.7,2.8-4.9,6.6-8.3,8.4
	c-5.9-5.3-15.5-5.9-21.9-1.2c-7.5,5.8-8,18.3-1.4,25c5.5,5.7,15,5.4,21.7,1.9c0-2.7,0.2-5.3-0.3-7.9c-3,0.1-6,0.2-8.9-0.3
	c0.1-3.3,0.1-6.6,0-9.9c6.6-0.9,13.3-0.3,20-0.3c0.1,8.7,0.1,17.5,0,26.3c-1.3,1.8-3.7,2-5.7,2.8c-10.6,3.4-23.2,4-32.8-2.6
	C120.4,343.4,118.1,327.1,124.3,315.6L124.3,315.6z"/>
<path class="st0" d="M235.5,309.9c4-5.8,11.5-7.9,18.2-7.4c5.1-0.2,10,1.7,14,4.7c-1.3,3.7-4.8,6-7.2,8.9c-2.8-2.2-6.2-3.5-9.9-2.9
	c-3.5-0.2-7.5,3.7-5.3,7.2c2.5,3,6.6,3.6,10.1,4.8c4.4,1.2,9.2,3.2,11.4,7.6c3.3,7.2,0.7,17-6.6,20.7c-9.2,4.6-21.4,3.6-29.1-3.5
	c2.3-3.3,5.2-6,7.8-9c2.9,2.2,5.9,4.9,9.8,4.5c3.3,0.3,8.2-1.4,7.8-5.4c-0.3-3.8-4.7-5-7.7-6.1c-5.8-1.7-12.8-3.7-15.2-9.9
	C232.2,319.4,232.5,313.9,235.5,309.9L235.5,309.9z"/>
<path class="st0" d="M293.1,304.6c8.8-3.3,19.7-3.4,27.2,2.8c0.8,0.9,2.5,1.6,1.9,3.1c-2.5,2.1-5.1,4.2-7.7,6.2
	c-2.3-0.4-3.9-2.6-6.2-3.2c-4-0.8-8.7-0.6-12,2c-9.4,6.6-8.8,22.9,1.3,28.5c5.7,3.3,13,1.2,17.1-3.7c3.1,2.2,6.1,4.5,9.1,6.8
	c-2.4,4.3-7,6.9-11.5,8.3c-9.2,2.2-19.7,0.3-26.7-6.3c-5.7-5.3-8.3-13.5-7.8-21.2C277.7,318,283.9,308.4,293.1,304.6L293.1,304.6z"
	/>
<path class="st2" d="M0,304.1c3.7-0.7,7.7-0.7,11.4,0c0,6.2-0.5,12.5,0.3,18.7c7-0.2,14-0.2,21,0c0.9-6.2,0.3-12.5,0.3-18.7
	c3.8-0.7,7.7-0.6,11.4-0.1c-0.1,16.9-0.1,33.9,0,50.8c-3.8,0.5-7.6,0.5-11.4,0c0.1-7.3,0.3-14.6,0-21.9c-7.2-0.2-14.4-0.2-21.5,0
	c-0.4,7.3-0.1,14.6-0.1,21.9c-3.8,0.5-7.6,0.5-11.4,0C0.1,337.9,0.1,321,0,304.1L0,304.1z"/>
<path class="st2" d="M185,304.1c3.5-0.8,7.1-0.3,10.7-0.4c8.1,0.1,16.1-0.2,24.2,0.1c0.1,3.5,0.1,7,0,10.5c-7.7,0.3-15.4,0.2-23,0
	c-0.5,3.1-0.5,6.3-0.1,9.4c7.3-0.1,14.7-0.2,22,0c0.1,3.5,0.1,7-0.1,10.5c-7.3,0.2-14.6,0.1-21.9,0c-0.3,3.4-0.3,6.7-0.2,10.1
	c8.3,0.2,16.5,0,24.8,0c-0.1,3.5-0.1,7,0,10.5c-6.2,0.7-12.5,0.2-18.7,0.3c-5.9-0.1-11.8,0.4-17.7-0.3
	C185.1,337.9,185.2,321,185,304.1L185,304.1z"/>
<path class="st3" d="M334.9,303.9c3.8-0.3,7.7-0.6,11.5,0.2c0,6.2-0.6,12.5,0.2,18.7c7.1-0.2,14.1-0.2,21.1,0
	c0.8-6.2,0.2-12.5,0.3-18.7c3.7-0.7,7.7-0.7,11.4,0c-0.1,16.9-0.1,33.8,0,50.7c-3.8,0.5-7.6,0.5-11.4,0c0-7.3,0.3-14.6-0.1-21.9
	c-7.1-0.2-14.3-0.2-21.5,0c-0.3,7.3-0.1,14.6,0,21.9c-3.8,0.5-7.7,0.5-11.5,0C334.9,337.9,335,320.9,334.9,303.9L334.9,303.9z"/>
<path class="st2" d="M524,304c3.7-0.5,7.6-0.6,11.4,0.1c-0.2,13.4-0.2,26.8,0,40.2c7,0.2,14,0,20.9,0c0,3.5,0,7,0.1,10.5
	c-5.2,0.6-10.5,0.2-15.7,0.3c-5.6-0.1-11.2,0.3-16.7-0.3C524.1,337.9,524.1,321,524,304L524,304z"/>
<path class="st0" d="M101.2,307.5c-6.8-5.2-16-5.9-24.2-4.4c-3.1,0.7-6.1,1.7-8.8,3.4c-15.4,9-16,34.4-1.6,44.6
	c10.5,7.3,26.1,6.9,36.1-1.1C115.1,339.4,114.6,317,101.2,307.5z M95.5,340.8c-6.3,6.9-18.9,6.4-24.3-1.4c-3.6-5.1-3.7-12-1.6-17.7
	c2.2-4.4,6.5-7.7,11.4-8.4c5-0.9,10.6,0.4,14.2,4.2C101.1,323.7,101.1,334.4,95.5,340.8z"/>
<path class="st0" d="M436.7,308c-7.7-6.1-18.4-6.7-27.6-4.3c-3.9,1.2-7.5,3.4-10.5,6.2c-8.7,8.7-9.6,23.4-3.7,33.9
	c7.9,13.6,27.8,15.9,40.4,7.9C449.7,342.3,450.3,318.3,436.7,308z M430.9,340.2c-6,7.5-19.2,7.2-24.7-0.7
	c-6.2-8.5-2.9-23.1,7.9-25.9c4.6-1,9.9-0.8,13.9,2.1C435.6,321.1,436.6,333.1,430.9,340.2z"/>
<path class="st0" d="M502.2,308.5c-7.7-6.5-18.7-7.3-28-4.9c-10.3,2.8-17.8,12.8-18.2,23.3c-0.5,6.6,1,13.5,4.9,18.9
	c10.8,14.5,36.4,14.1,46.3-1.4C513.9,333.3,512.5,317,502.2,308.5z M492,343.3c-6,3.5-14.6,3.1-19.5-2.1c-8.3-8-5.2-24.8,6.6-27.7
	c4.1-0.7,8.7-0.7,12.5,1.5C501.8,320.5,501.9,337.5,492,343.3z"/>
</svg>
